# xmcd CD database file
# Copyright (C) 1993-1996 Ti Kan
#
# Track frame offsets:
# 150
# 9972
# 19905
# 31605
# 43972
# 54352
# 65875
# 76522
# 89050
# 100932
# 112655
# 126185
# 137515
# 150150
# 162540
# 172360
# 185000
# 198555
# 210772
# 224092
# 237527
# 249720
# 260835
# 272885
# 284582
# 295985
# 308385
# 317425
# 327200
# 338375
# 350512
#
# Disc length: 4805 seconds
#
# Revision: 0
# Processed by: cddbd v1.5.1PL0 Copyright (c) Steve Scherf et al.
# Submitted via: inCDius 1.1b5
#
DISCID=c812c31f
DTITLE=Carl Smith - Satisfaction Guaranteed - Disc 2
DYEAR=1996
DGENRE=Country
TTITLE0=Amazing Grace
TTITLE1=I'll Be List'ning
TTITLE2=Our Honeymoon
TTITLE3=Sing Her A Love Song
TTITLE4=Lovin' Is Livin' 
TTITLE5=I Want To Take My Baby Home With Me
TTITLE6=Trademark
TTITLE7=This Orchid Means Goodbye (Orchids Mean Goodbye)
TTITLE8=Just Wait 'Til I Get You Alone
TTITLE9=Do I Like IT ?
TTITLE10=Darlin' Am I The One
TTITLE11=Hey Joe!
TTITLE12=If You Tried As Hard To Love Me (As You Do To Break My Heart)
TTITLE13=Love Oh Crazy Love
TTITLE14=Time's A Wastin'
TTITLE15=No Second Chance
TTITLE16=Satiafaction Guaranteed
TTITLE17=The House That Love Built
TTITLE18=Who'll Buy My Heartaches
TTITLE19=Oh, No!
TTITLE20=What Am I Gonna Do With You
TTITLE21=Dog - Gone It, Baby, I'm In Love
TTITLE22=If I Could Hold Back The Dawn
TTITLE23=Back Up Buddy
TTITLE24=Look What Thoughts  Done To Me
TTITLE25=I Just Dropped In To Say Goodbye
TTITLE26=Lovin' Is Livin'
TTITLE27=Go, Boy Go
TTITLE28=More Than Anything Else In The World
TTITLE29=If You Saw Her Through My Eyes (You'd See Her Differently)
TTITLE30=No, I Don't Believe I Will
EXTD=
EXTT0=
EXTT1=
EXTT2=
EXTT3=
EXTT4=
EXTT5=
EXTT6=
EXTT7=
EXTT8=
EXTT9=
EXTT10=
EXTT11=
EXTT12=
EXTT13=With June Carter
EXTT14=With June Carter
EXTT15=
EXTT16=
EXTT17=
EXTT18=
EXTT19=
EXTT20=
EXTT21=
EXTT22=
EXTT23=
EXTT24=
EXTT25=
EXTT26=
EXTT27=
EXTT28=
EXTT29=
EXTT30=
PLAYORDER=
